o Default
v -0.75 0 0.75
v 0.25 1 0.25
v -0.75 1 0.25
v 0.5 0 0.75
v 1 1 -0.25
v 1.25 0 -0.25
v 0.25 1.25 -0.25
v -0.75 1.25 -0.25
v 0.75 1.25 -0.25
vt 0.1875 0.9375
vt 0.25 1
vt 0.1875 1
vt 0.1875 0.9375
vt 0.25 0.9375
vt 0.25 1
vt 0.25 0.9375
vt 0.3125 1
vt 0.25 1
vt 0.25 0.9375
vt 0.3125 0.9375
vt 0.3125 1
vt 0.3125 0.9375
vt 0.375 1
vt 0.3125 1
vt 0.3125 0.9375
vt 0.375 0.9375
vt 0.375 1
vt 0.375 0.9375
vt 0.4375 1
vt 0.375 1
vt 0.375 0.9375
vt 0.4375 0.9375
vt 0.4375 1
vn 0 0.4472135954999579 0.8944271909999159
vn 0 0.4472135954999579 0.8944271909999159
vn 0 0.4472135954999579 0.8944271909999159
vn 0 0.4472135954999579 0.8944271909999159
vn 0 0.4472135954999579 0.8944271909999159
vn 0 0.4472135954999579 0.8944271909999159
vn 0.48507125007266594 0.48507125007266594 0.7276068751089989
vn 0.48507125007266594 0.48507125007266594 0.7276068751089989
vn 0.48507125007266594 0.48507125007266594 0.7276068751089989
vn 0.7844645405527362 0.19611613513818404 0.5883484054145521
vn 0.7844645405527362 0.19611613513818404 0.5883484054145521
vn 0.7844645405527362 0.19611613513818404 0.5883484054145521
vn 0 0.8944271909999159 0.4472135954999579
vn 0 0.8944271909999159 0.4472135954999579
vn 0 0.8944271909999159 0.4472135954999579
vn 0 0.8944271909999159 0.4472135954999579
vn 0 0.8944271909999159 0.4472135954999579
vn 0 0.8944271909999159 0.4472135954999579
vn 0 0.8944271909999159 0.4472135954999579
vn 0 0.8944271909999159 0.4472135954999579
vn 0 0.8944271909999159 0.4472135954999579
vn 0.48507125007266594 0.48507125007266594 0.7276068751089989
vn 0.48507125007266594 0.48507125007266594 0.7276068751089989
vn 0.48507125007266594 0.48507125007266594 0.7276068751089989
g atk_tackle
usemtl 1
f 1/1/1 2/2/2 3/3/3
f 1/4/4 4/5/5 2/6/6
f 4/7/7 5/8/8 2/9/9
f 4/10/10 6/11/11 5/12/12
f 3/13/13 7/14/14 8/15/15
f 3/16/16 2/17/17 7/18/18
f 2/19/19 9/20/20 7/21/21
f 2/22/22 5/23/23 9/24/24
