mtllib material.mtl
o Default
v 0 2 0
v 1 2 -1
v 0 2 -1
v 1 2 0
v 0 0 1
v 1 1 0.5
v 0 1 0.5
v 1 0 1
v 1 1 -0.5
v 1 0 0
vt 0.75 0.5
vt 1 0.5714285969734192
vt 0.75 0.5714285969734192
vt 0.75 0.5
vt 1 0.5
vt 1 0.5714285969734192
vt 0.25 0.5
vt 0.5 0.5714285969734192
vt 0.25 0.5714285969734192
vt 0.25 0.5
vt 0.5 0.5
vt 0.5 0.5714285969734192
vt 0 0.4285714328289032
vt 0.25 0.5
vt 0 0.5
vt 0 0.4285714328289032
vt 0.25 0.4285714328289032
vt 0.25 0.5
vt 0.25 0.5
vt 0.5 0.5714285969734192
vt 0.25 0.5714285969734192
vt 0.25 0.5
vt 0.5 0.5
vt 0.5 0.5714285969734192
vt 0 0.4285714328289032
vt 0.25 0.5
vt 0 0.5
vt 0 0.4285714328289032
vt 0.25 0.4285714328289032
vt 0.25 0.5
vn 0 1 0
vn 0 1 0
vn 0 1 0
vn 0 1 0
vn 0 1 0
vn 0 1 0
vn 0 0.4472135954999579 0.8944271909999159
vn 0 0.4472135954999579 0.8944271909999159
vn 0 0.4472135954999579 0.8944271909999159
vn 0 0.4472135954999579 0.8944271909999159
vn 0 0.4472135954999579 0.8944271909999159
vn 0 0.4472135954999579 0.8944271909999159
vn 0 0.4472135954999579 0.8944271909999159
vn 0 0.4472135954999579 0.8944271909999159
vn 0 0.4472135954999579 0.8944271909999159
vn 0 0.4472135954999579 0.8944271909999159
vn 0 0.4472135954999579 0.8944271909999159
vn 0 0.4472135954999579 0.8944271909999159
vn 1 0 0
vn 1 0 0
vn 1 0 0
vn 1 0 0
vn 1 0 0
vn 1 0 0
vn 1 0 0
vn 1 0 0
vn 1 0 0
vn 1 0 0
vn 1 0 0
vn 1 0 0
g tile_lab_5
usemtl 1
f 1/1/1 2/2/2 3/3/3
f 1/4/4 4/5/5 2/6/6
f 5/7/7 6/8/8 7/9/9
f 5/10/10 8/11/11 6/12/12
f 7/13/13 4/14/14 1/15/15
f 7/16/16 6/17/17 4/18/18
f 8/19/19 9/20/20 6/21/21
f 8/22/22 10/23/23 9/24/24
f 6/25/25 2/26/26 4/27/27
f 6/28/28 9/29/29 2/30/30
