mtllib material.mtl
o Default
v -0.5 0.4999999701976776 0.5
v 0.5 0.5000919103622437 -0.49994999170303345
v -0.5 0.5000919103622437 -0.49994999170303345
v 0.5 0.4999999701976776 0.5
v -0.5 -0.0000852346420288086 0.49994999170303345
v 0.5 0 0.5
vt 0.5 0.9910714030265808
vt 0.75 1
vt 0.5 1
vt 0.5 0.9910714030265808
vt 0.75 0.9910714030265808
vt 0.75 1
vt 0.5 0.9732142686843872
vt 0.75 0.9776785969734192
vt 0.5 0.9776785969734192
vt 0.5 0.9732142686843872
vt 0.75 0.9732142686843872
vt 0.75 0.9776785969734192
vn 0 0.9999999957730803 0.00009194476217838788
vn 0 0.9999999957730803 0.00009194476217838788
vn 0 0.9999999957730803 0.00009194476217838788
vn 0 0.9999999957730803 0.00009194476217838788
vn 0 0.9999999957730803 0.00009194476217838788
vn 0 0.9999999957730803 0.00009194476217838788
vn 0 -0.00009999955254133697 0.9999999950000447
vn 0 -0.00009999955254133697 0.9999999950000447
vn 0 -0.00009999955254133697 0.9999999950000447
vn -0.00005000829690402162 0 0.9999999987495852
vn -0.00005000829690402162 0 0.9999999987495852
vn -0.00005000829690402162 0 0.9999999987495852
g grass_ledge_south
usemtl 1
f 1/1/1 2/2/2 3/3/3
f 1/4/4 4/5/5 2/6/6
f 5/7/7 4/8/8 1/9/9
f 5/10/10 6/11/11 4/12/12
