mtllib material.mtl
o Default
v -0.5 1 0.5
v 0.5 1.0000965595245361 -0.49994999170303345
v -0.5 1.0000919103622437 -0.49994999170303345
v 0.5 1 0.5
v -0.5 0 0.5
v 0.5 0 0.5
vt 0.5 0.9642857313156128
vt 0.75 0.9732142686843872
vt 0.5 0.9732142686843872
vt 0.5 0.9642857313156128
vt 0.75 0.9642857313156128
vt 0.75 0.9732142686843872
vt 0.5 0.9732142686843872
vt 0.75 0.9821428656578064
vt 0.5 0.9821428656578064
vt 0.5 0.9732142686843872
vt 0.75 0.9732142686843872
vt 0.75 0.9821428656578064
vn -0.000004649162272791326 0.9999999957650129 0.00009191495836494673
vn -0.000004649162272791326 0.9999999957650129 0.00009191495836494673
vn -0.000004649162272791326 0.9999999957650129 0.00009191495836494673
vn 0 0.9999999953376628 0.00009656435310478619
vn 0 0.9999999953376628 0.00009656435310478619
vn 0 0.9999999953376628 0.00009656435310478619
vn 0 0 1
vn 0 0 1
vn 0 0 1
vn 0 0 1
vn 0 0 1
vn 0 0 1
g rocky_mountain_south
usemtl 1
f 1/1/1 2/2/2 3/3/3
f 1/4/4 4/5/5 2/6/6
f 5/7/7 4/8/8 1/9/9
f 5/10/10 6/11/11 4/12/12
