mtllib material.mtl
o Default
v 0 1 1.5
v 1 1 -0.5
v 0 1 -0.5
v 1 1 1.5
v 1 1 1.5
v 2 1 -0.5
v 1 1 -0.5
v 2 1 1.5
v 2 1 1.5
v 3 1 -0.5
v 2 1 -0.5
v 3 1 1.5
v 3 1 1.5
v 4 1 -0.5
v 3 1 -0.5
v 4 1 1.5
v 4 0 1
v 4 1 -0.5
v 4 1 0.5
v 4 0 0
v 4 0 2
v 4 1 0.5
v 4 1 1.5
v 4 0 1
v 0 0 0
v 0 1 0.5
v 0 1 -0.5
v 0 0 1
v 0 0 1
v 0 1 1.5
v 0 1 0.5
v 0 0 2
v 1 0 2
v 2 1 1.5
v 1 1 1.5
v 2 0 2
v 3 0 2
v 4 1 1.5
v 3 1 1.5
v 4 0 2
v 3 1 1.5
v 3 0 2
v 0 0 2
v 1 1 1.5
v 0 1 1.5
v 1 0 2
vt 0.75 0.5
vt 1 0.6428571343421936
vt 0.75 0.6428571343421936
vt 0.75 0.5
vt 1 0.5
vt 1 0.6428571343421936
vt 0.75 0.5
vt 1 0.6428571343421936
vt 0.75 0.6428571343421936
vt 0.75 0.5
vt 1 0.5
vt 1 0.6428571343421936
vt 0.75 0.5
vt 1 0.6428571343421936
vt 0.75 0.6428571343421936
vt 0.75 0.5
vt 1 0.5
vt 1 0.6428571343421936
vt 0.75 0.5
vt 1 0.6428571343421936
vt 0.75 0.6428571343421936
vt 0.75 0.5
vt 1 0.5
vt 1 0.6428571343421936
vt 0.25 0.5
vt 0.5 0.5714285969734192
vt 0.25 0.5714285969734192
vt 0.25 0.5
vt 0.5 0.5
vt 0.5 0.5714285969734192
vt 0.25 0.5
vt 0.5 0.5714285969734192
vt 0.25 0.5714285969734192
vt 0.25 0.5
vt 0.5 0.5
vt 0.5 0.5714285969734192
vt 0.25 0.5
vt 0.5 0.5714285969734192
vt 0.25 0.5714285969734192
vt 0.25 0.5
vt 0.5 0.5
vt 0.5 0.5714285969734192
vt 0.25 0.5
vt 0.5 0.5714285969734192
vt 0.25 0.5714285969734192
vt 0.25 0.5
vt 0.5 0.5
vt 0.5 0.5714285969734192
vt 0 0.5
vt 0.25 0.5714285969734192
vt 0 0.5714285969734192
vt 0 0.5
vt 0.25 0.5
vt 0.25 0.5714285969734192
vt 0.25 0.5
vt 0.5 0.5714285969734192
vt 0.25 0.5714285969734192
vt 0.25 0.5
vt 0.5 0.5
vt 0.5 0.5714285969734192
vt 0.25 0.5
vt 0.5 0.5714285969734192
vt 0.25 0.5714285969734192
vt 0.25 0.5
vt 0.5 0.5
vt 0.5 0.5714285969734192
vt 0.25 0.5
vt 0.5 0.5714285969734192
vt 0.25 0.5714285969734192
vt 0.25 0.5
vt 0.5 0.5
vt 0.5 0.5714285969734192
vn 0 1 0
vn 0 1 0
vn 0 1 0
vn 0 1 0
vn 0 1 0
vn 0 1 0
vn 0 1 0
vn 0 1 0
vn 0 1 0
vn 0 1 0
vn 0 1 0
vn 0 1 0
vn 0 1 0
vn 0 1 0
vn 0 1 0
vn 0 1 0
vn 0 1 0
vn 0 1 0
vn 0 1 0
vn 0 1 0
vn 0 1 0
vn 0 1 0
vn 0 1 0
vn 0 1 0
vn 1 0 0
vn 1 0 0
vn 1 0 0
vn 1 0 0
vn 1 0 0
vn 1 0 0
vn 1 0 0
vn 1 0 0
vn 1 0 0
vn 1 0 0
vn 1 0 0
vn 1 0 0
vn -1 0 0
vn -1 0 0
vn -1 0 0
vn -1 0 0
vn -1 0 0
vn -1 0 0
vn -1 0 0
vn -1 0 0
vn -1 0 0
vn -1 0 0
vn -1 0 0
vn -1 0 0
vn 0 0.4472135954999579 0.8944271909999159
vn 0 0.4472135954999579 0.8944271909999159
vn 0 0.4472135954999579 0.8944271909999159
vn 0 0.4472135954999579 0.8944271909999159
vn 0 0.4472135954999579 0.8944271909999159
vn 0 0.4472135954999579 0.8944271909999159
vn 0 0.4472135954999579 0.8944271909999159
vn 0 0.4472135954999579 0.8944271909999159
vn 0 0.4472135954999579 0.8944271909999159
vn 0 0.4472135954999579 0.8944271909999159
vn 0 0.4472135954999579 0.8944271909999159
vn 0 0.4472135954999579 0.8944271909999159
vn 0 0.4472135954999579 0.8944271909999159
vn 0 0.4472135954999579 0.8944271909999159
vn 0 0.4472135954999579 0.8944271909999159
vn 0 0.4472135954999579 0.8944271909999159
vn 0 0.4472135954999579 0.8944271909999159
vn 0 0.4472135954999579 0.8944271909999159
vn 0 0.4472135954999579 0.8944271909999159
vn 0 0.4472135954999579 0.8944271909999159
vn 0 0.4472135954999579 0.8944271909999159
vn 0 0.4472135954999579 0.8944271909999159
vn 0 0.4472135954999579 0.8944271909999159
vn 0 0.4472135954999579 0.8944271909999159
g struct_building_house_small
usemtl material1
f 1/1/1 2/2/2 3/3/3
f 1/4/4 4/5/5 2/6/6
f 5/7/7 6/8/8 7/9/9
f 5/10/10 8/11/11 6/12/12
f 9/13/13 10/14/14 11/15/15
f 9/16/16 12/17/17 10/18/18
f 13/19/19 14/20/20 15/21/21
f 13/22/22 16/23/23 14/24/24
f 17/25/25 18/26/26 19/27/27
f 17/28/28 20/29/29 18/30/30
f 21/31/31 22/32/32 23/33/33
f 21/34/34 24/35/35 22/36/36
f 25/37/37 26/38/38 27/39/39
f 25/40/40 28/41/41 26/42/42
f 29/43/43 30/44/44 31/45/45
f 29/46/46 32/47/47 30/48/48
f 33/49/49 34/50/50 35/51/51
f 33/52/52 36/53/53 34/54/54
f 37/55/55 38/56/56 39/57/57
f 37/58/58 40/59/59 38/60/60
f 36/61/61 41/62/62 34/63/63
f 36/64/64 42/65/65 41/66/66
f 43/67/67 44/68/68 45/69/69
f 43/70/70 46/71/71 44/72/72
