mtllib material.mtl
o Default
v 1 0 4
v 2 1 3.5
v 1 1 3.5
v 2 0 4
v 3 1 3.5
v 4 2 3
v 3 2 3
v 4 1 3.5
v 0 1 0.5
v 0 2 1
v 0 2 0
v 0 1 1.5
v 0 1 1.5
v 0 2 2
v 0 2 1
v 0 1 2.5
v 0 1 2.5
v 0 2 3
v 0 2 2
v 0 1 3.5
v 0 1 3.5
v 1 2 3
v 0 2 3
v 1 1 3.5
v 1 1 3.5
v 2 2 3
v 1 2 3
v 2 1 3.5
v 2 1 3.5
v 3 2 3
v 2 2 3
v 3 1 3.5
v 4 1 1.5
v 4 2 0
v 4 2 1
v 4 1 0.5
v 4 1 2.5
v 4 2 1
v 4 2 2
v 4 1 1.5
v 4 1 3.5
v 4 2 2
v 4 2 3
v 4 1 2.5
v 4 -5.551115123125783e-17 2
v 4 1 0.5
v 4 1 1.5
v 4 -5.551115123125783e-17 1
v 4 0 3
v 4 1 1.5
v 4 1 2.5
v 4 -5.551115123125783e-17 2
v 4 0 4
v 4 1 2.5
v 4 1 3.5
v 4 0 3
v -1.7763568394002505e-15 0 1
v 0 1 1.5
v 0 1 0.5
v 0 0 2
v 0 0 2
v 0 1 2.5
v 0 1 1.5
v -1.7763568394002505e-15 -5.551115123125783e-17 3
v -1.7763568394002505e-15 -5.551115123125783e-17 3
v 0 1 3.5
v 0 1 2.5
v 0 0 4
v 3 0 4
v 4 1 3.5
v 3 1 3.5
v 4 0 4
v 3 1 3.5
v 3 0 4
v 0 0 4
v 1 1 3.5
v 0 1 3.5
v 1 0 4
v 3 2 1
v 4 2 0
v 3 2 0
v 4 2 1
v 2 2 1
v 3 2 0
v 2 2 0
v 3 2 1
v 1 2 1
v 2 2 0
v 1 2 0
v 2 2 1
v 0 2 1
v 1 2 0
v 0 2 0
v 1 2 1
v 3 2 2
v 4 2 1
v 3 2 1
v 4 2 2
v 2 2 2
v 3 2 1
v 2 2 1
v 3 2 2
v 1 2 2
v 2 2 1
v 1 2 1
v 2 2 2
v 0 2 2
v 1 2 1
v 0 2 1
v 1 2 2
v 3 2 3
v 4 2 2
v 3 2 2
v 4 2 3
v 2 2 3
v 3 2 2
v 2 2 2
v 3 2 3
v 1 2 3
v 2 2 2
v 1 2 2
v 2 2 3
v 0 2 3
v 1 2 2
v 0 2 2
v 1 2 3
vt 0 0.5
vt 0.25 0.5714285969734192
vt 0 0.5714285969734192
vt 0 0.5
vt 0.25 0.5
vt 0.25 0.5714285969734192
vt 0.5 0.5
vt 0.75 0.5714285969734192
vt 0.5 0.5714285969734192
vt 0.5 0.5
vt 0.75 0.5
vt 0.75 0.5714285969734192
vt 0 0.4285714328289032
vt 0.25 0.5
vt 0 0.5
vt 0 0.4285714328289032
vt 0.25 0.4285714328289032
vt 0.25 0.5
vt 0 0.4285714328289032
vt 0.25 0.5
vt 0 0.5
vt 0 0.4285714328289032
vt 0.25 0.4285714328289032
vt 0.25 0.5
vt 0 0.4285714328289032
vt 0.25 0.5
vt 0 0.5
vt 0 0.4285714328289032
vt 0.25 0.4285714328289032
vt 0.25 0.5
vt 0 0.4285714328289032
vt 0.25 0.5
vt 0 0.5
vt 0 0.4285714328289032
vt 0.25 0.4285714328289032
vt 0.25 0.5
vt 0 0.4285714328289032
vt 0.25 0.5
vt 0 0.5
vt 0 0.4285714328289032
vt 0.25 0.4285714328289032
vt 0.25 0.5
vt 0 0.4285714328289032
vt 0.25 0.5
vt 0 0.5
vt 0 0.4285714328289032
vt 0.25 0.4285714328289032
vt 0.25 0.5
vt 0 0.4285714328289032
vt 0.25 0.5
vt 0 0.5
vt 0 0.4285714328289032
vt 0.25 0.4285714328289032
vt 0.25 0.5
vt 0 0.4285714328289032
vt 0.25 0.5
vt 0 0.5
vt 0 0.4285714328289032
vt 0.25 0.4285714328289032
vt 0.25 0.5
vt 0 0.4285714328289032
vt 0.25 0.5
vt 0 0.5
vt 0 0.4285714328289032
vt 0.25 0.4285714328289032
vt 0.25 0.5
vt 0.25 0.5
vt 0.5 0.5714285969734192
vt 0.25 0.5714285969734192
vt 0.25 0.5
vt 0.5 0.5
vt 0.5 0.5714285969734192
vt 0.25 0.5
vt 0.5 0.5714285969734192
vt 0.25 0.5714285969734192
vt 0.25 0.5
vt 0.5 0.5
vt 0.5 0.5714285969734192
vt 0.25 0.5
vt 0.5 0.5714285969734192
vt 0.25 0.5714285969734192
vt 0.25 0.5
vt 0.5 0.5
vt 0.5 0.5714285969734192
vt 0.25 0.5
vt 0.5 0.5714285969734192
vt 0.25 0.5714285969734192
vt 0.25 0.5
vt 0.5 0.5
vt 0.5 0.5714285969734192
vt 0.25 0.5
vt 0.5 0.5714285969734192
vt 0.25 0.5714285969734192
vt 0.25 0.5
vt 0.5 0.5
vt 0.5 0.5714285969734192
vt 0.25 0.5
vt 0.5 0.5714285969734192
vt 0.25 0.5714285969734192
vt 0.25 0.5
vt 0.5 0.5
vt 0.5 0.5714285969734192
vt 0.25 0.5
vt 0.5 0.5714285969734192
vt 0.25 0.5714285969734192
vt 0.25 0.5
vt 0.5 0.5
vt 0.5 0.5714285969734192
vt 0.25 0.5
vt 0.5 0.5714285969734192
vt 0.25 0.5714285969734192
vt 0.25 0.5
vt 0.5 0.5
vt 0.5 0.5714285969734192
vt 0.25 0.5
vt 0.5 0.5714285969734192
vt 0.25 0.5714285969734192
vt 0.25 0.5
vt 0.5 0.5
vt 0.5 0.5714285969734192
vt 0.75 0.5714285969734192
vt 1 0.6428571343421936
vt 0.75 0.6428571343421936
vt 0.75 0.5714285969734192
vt 1 0.5714285969734192
vt 1 0.6428571343421936
vt 0.75 0.5714285969734192
vt 1 0.6428571343421936
vt 0.75 0.6428571343421936
vt 0.75 0.5714285969734192
vt 1 0.5714285969734192
vt 1 0.6428571343421936
vt 0.75 0.5714285969734192
vt 1 0.6428571343421936
vt 0.75 0.6428571343421936
vt 0.75 0.5714285969734192
vt 1 0.5714285969734192
vt 1 0.6428571343421936
vt 0.75 0.5714285969734192
vt 1 0.6428571343421936
vt 0.75 0.6428571343421936
vt 0.75 0.5714285969734192
vt 1 0.5714285969734192
vt 1 0.6428571343421936
vt 0.75 0.4285714328289032
vt 1 0.5
vt 0.75 0.5
vt 0.75 0.4285714328289032
vt 1 0.4285714328289032
vt 1 0.5
vt 0.75 0.4285714328289032
vt 1 0.5
vt 0.75 0.5
vt 0.75 0.4285714328289032
vt 1 0.4285714328289032
vt 1 0.5
vt 0.75 0.4285714328289032
vt 1 0.5
vt 0.75 0.5
vt 0.75 0.4285714328289032
vt 1 0.4285714328289032
vt 1 0.5
vt 0.75 0.4285714328289032
vt 1 0.5
vt 0.75 0.5
vt 0.75 0.4285714328289032
vt 1 0.4285714328289032
vt 1 0.5
vt 0.75 0.5
vt 1 0.5714285969734192
vt 0.75 0.5714285969734192
vt 0.75 0.5
vt 1 0.5
vt 1 0.5714285969734192
vt 0.75 0.5
vt 1 0.5714285969734192
vt 0.75 0.5714285969734192
vt 0.75 0.5
vt 1 0.5
vt 1 0.5714285969734192
vt 0.75 0.5
vt 1 0.5714285969734192
vt 0.75 0.5714285969734192
vt 0.75 0.5
vt 1 0.5
vt 1 0.5714285969734192
vt 0.75 0.5
vt 1 0.5714285969734192
vt 0.75 0.5714285969734192
vt 0.75 0.5
vt 1 0.5
vt 1 0.5714285969734192
vn 0 0.4472135954999579 0.8944271909999159
vn 0 0.4472135954999579 0.8944271909999159
vn 0 0.4472135954999579 0.8944271909999159
vn 0 0.4472135954999579 0.8944271909999159
vn 0 0.4472135954999579 0.8944271909999159
vn 0 0.4472135954999579 0.8944271909999159
vn 0 0.4472135954999579 0.8944271909999159
vn 0 0.4472135954999579 0.8944271909999159
vn 0 0.4472135954999579 0.8944271909999159
vn 0 0.4472135954999579 0.8944271909999159
vn 0 0.4472135954999579 0.8944271909999159
vn 0 0.4472135954999579 0.8944271909999159
vn -1 0 0
vn -1 0 0
vn -1 0 0
vn -1 0 0
vn -1 0 0
vn -1 0 0
vn -1 0 0
vn -1 0 0
vn -1 0 0
vn -1 0 0
vn -1 0 0
vn -1 0 0
vn -1 0 0
vn -1 0 0
vn -1 0 0
vn -1 0 0
vn -1 0 0
vn -1 0 0
vn 0 0.4472135954999579 0.8944271909999159
vn 0 0.4472135954999579 0.8944271909999159
vn 0 0.4472135954999579 0.8944271909999159
vn 0 0.4472135954999579 0.8944271909999159
vn 0 0.4472135954999579 0.8944271909999159
vn 0 0.4472135954999579 0.8944271909999159
vn 0 0.4472135954999579 0.8944271909999159
vn 0 0.4472135954999579 0.8944271909999159
vn 0 0.4472135954999579 0.8944271909999159
vn 0 0.4472135954999579 0.8944271909999159
vn 0 0.4472135954999579 0.8944271909999159
vn 0 0.4472135954999579 0.8944271909999159
vn 0 0.4472135954999579 0.8944271909999159
vn 0 0.4472135954999579 0.8944271909999159
vn 0 0.4472135954999579 0.8944271909999159
vn 0 0.4472135954999579 0.8944271909999159
vn 0 0.4472135954999579 0.8944271909999159
vn 0 0.4472135954999579 0.8944271909999159
vn 1 0 0
vn 1 0 0
vn 1 0 0
vn 1 0 0
vn 1 0 0
vn 1 0 0
vn 1 0 0
vn 1 0 0
vn 1 0 0
vn 1 0 0
vn 1 0 0
vn 1 0 0
vn 1 0 0
vn 1 0 0
vn 1 0 0
vn 1 0 0
vn 1 0 0
vn 1 0 0
vn 1 0 0
vn 1 0 0
vn 1 0 0
vn 1 0 0
vn 1 0 0
vn 1 0 0
vn 1 0 0
vn 1 0 0
vn 1 0 0
vn 1 0 0
vn 1 0 0
vn 1 0 0
vn 1 0 0
vn 1 0 0
vn 1 0 0
vn 1 0 0
vn 1 0 0
vn 1 0 0
vn -1 1.7763568394002505e-15 0
vn -1 1.7763568394002505e-15 0
vn -1 1.7763568394002505e-15 0
vn -1 8.881784197001252e-16 1.7763568394002505e-15
vn -1 8.881784197001252e-16 1.7763568394002505e-15
vn -1 8.881784197001252e-16 1.7763568394002505e-15
vn -1 0 0
vn -1 0 0
vn -1 0 0
vn -1 8.881784197001252e-16 -1.7763568394002505e-15
vn -1 8.881784197001252e-16 -1.7763568394002505e-15
vn -1 8.881784197001252e-16 -1.7763568394002505e-15
vn -1 1.7763568394002505e-15 0
vn -1 1.7763568394002505e-15 0
vn -1 1.7763568394002505e-15 0
vn -1 8.881784197001252e-16 1.7763568394002505e-15
vn -1 8.881784197001252e-16 1.7763568394002505e-15
vn -1 8.881784197001252e-16 1.7763568394002505e-15
vn 0 0.4472135954999579 0.8944271909999159
vn 0 0.4472135954999579 0.8944271909999159
vn 0 0.4472135954999579 0.8944271909999159
vn 0 0.4472135954999579 0.8944271909999159
vn 0 0.4472135954999579 0.8944271909999159
vn 0 0.4472135954999579 0.8944271909999159
vn 0 0.4472135954999579 0.8944271909999159
vn 0 0.4472135954999579 0.8944271909999159
vn 0 0.4472135954999579 0.8944271909999159
vn 0 0.4472135954999579 0.8944271909999159
vn 0 0.4472135954999579 0.8944271909999159
vn 0 0.4472135954999579 0.8944271909999159
vn 0 0.4472135954999579 0.8944271909999159
vn 0 0.4472135954999579 0.8944271909999159
vn 0 0.4472135954999579 0.8944271909999159
vn 0 0.4472135954999579 0.8944271909999159
vn 0 0.4472135954999579 0.8944271909999159
vn 0 0.4472135954999579 0.8944271909999159
vn 0 1 0
vn 0 1 0
vn 0 1 0
vn 0 1 0
vn 0 1 0
vn 0 1 0
vn 0 1 0
vn 0 1 0
vn 0 1 0
vn 0 1 0
vn 0 1 0
vn 0 1 0
vn 0 1 0
vn 0 1 0
vn 0 1 0
vn 0 1 0
vn 0 1 0
vn 0 1 0
vn 0 1 0
vn 0 1 0
vn 0 1 0
vn 0 1 0
vn 0 1 0
vn 0 1 0
vn 0 1 0
vn 0 1 0
vn 0 1 0
vn 0 1 0
vn 0 1 0
vn 0 1 0
vn 0 1 0
vn 0 1 0
vn 0 1 0
vn 0 1 0
vn 0 1 0
vn 0 1 0
vn 0 1 0
vn 0 1 0
vn 0 1 0
vn 0 1 0
vn 0 1 0
vn 0 1 0
vn 0 1 0
vn 0 1 0
vn 0 1 0
vn 0 1 0
vn 0 1 0
vn 0 1 0
vn 0 1 0
vn 0 1 0
vn 0 1 0
vn 0 1 0
vn 0 1 0
vn 0 1 0
vn 0 1 0
vn 0 1 0
vn 0 1 0
vn 0 1 0
vn 0 1 0
vn 0 1 0
vn 0 1 0
vn 0 1 0
vn 0 1 0
vn 0 1 0
vn 0 1 0
vn 0 1 0
vn 0 1 0
vn 0 1 0
vn 0 1 0
vn 0 1 0
vn 0 1 0
vn 0 1 0
g struct_building_house_medium
usemtl material1
f 1/1/1 2/2/2 3/3/3
f 1/4/4 4/5/5 2/6/6
f 5/7/7 6/8/8 7/9/9
f 5/10/10 8/11/11 6/12/12
f 9/13/13 10/14/14 11/15/15
f 9/16/16 12/17/17 10/18/18
f 13/19/19 14/20/20 15/21/21
f 13/22/22 16/23/23 14/24/24
f 17/25/25 18/26/26 19/27/27
f 17/28/28 20/29/29 18/30/30
f 21/31/31 22/32/32 23/33/33
f 21/34/34 24/35/35 22/36/36
f 25/37/37 26/38/38 27/39/39
f 25/40/40 28/41/41 26/42/42
f 29/43/43 30/44/44 31/45/45
f 29/46/46 32/47/47 30/48/48
f 33/49/49 34/50/50 35/51/51
f 33/52/52 36/53/53 34/54/54
f 37/55/55 38/56/56 39/57/57
f 37/58/58 40/59/59 38/60/60
f 41/61/61 42/62/62 43/63/63
f 41/64/64 44/65/65 42/66/66
f 45/67/67 46/68/68 47/69/69
f 45/70/70 48/71/71 46/72/72
f 49/73/73 50/74/74 51/75/75
f 49/76/76 52/77/77 50/78/78
f 53/79/79 54/80/80 55/81/81
f 53/82/82 56/83/83 54/84/84
f 57/85/85 58/86/86 59/87/87
f 57/88/88 60/89/89 58/90/90
f 61/91/91 62/92/92 63/93/93
f 61/94/94 64/95/95 62/96/96
f 65/97/97 66/98/98 67/99/99
f 65/100/100 68/101/101 66/102/102
f 69/103/103 70/104/104 71/105/105
f 69/106/106 72/107/107 70/108/108
f 4/109/109 73/110/110 2/111/111
f 4/112/112 74/113/113 73/114/114
f 75/115/115 76/116/116 77/117/117
f 75/118/118 78/119/119 76/120/120
f 79/121/121 80/122/122 81/123/123
f 79/124/124 82/125/125 80/126/126
f 83/127/127 84/128/128 85/129/129
f 83/130/130 86/131/131 84/132/132
f 87/133/133 88/134/134 89/135/135
f 87/136/136 90/137/137 88/138/138
f 91/139/139 92/140/140 93/141/141
f 91/142/142 94/143/143 92/144/144
f 95/145/145 96/146/146 97/147/147
f 95/148/148 98/149/149 96/150/150
f 99/151/151 100/152/152 101/153/153
f 99/154/154 102/155/155 100/156/156
f 103/157/157 104/158/158 105/159/159
f 103/160/160 106/161/161 104/162/162
f 107/163/163 108/164/164 109/165/165
f 107/166/166 110/167/167 108/168/168
f 111/169/169 112/170/170 113/171/171
f 111/172/172 114/173/173 112/174/174
f 115/175/175 116/176/176 117/177/177
f 115/178/178 118/179/179 116/180/180
f 119/181/181 120/182/182 121/183/183
f 119/184/184 122/185/185 120/186/186
f 123/187/187 124/188/188 125/189/189
f 123/190/190 126/191/191 124/192/192
