mtllib material.mtl
o Default
v 0 1 0.5
v 0 2 -1
v 0 2 0
v 0 1 -0.5
v 0 0 1
v 0 0 -5.551115123125783e-17
v 1 2 -1
v 1 1 -0.5
v 1 0 0
v 1 -1.1102230246251565e-16 1
vt 0.75 0.8482142686843872
vt 1 0.8571428656578064
vt 0.75 0.8571428656578064
vt 0.75 0.8482142686843872
vt 1 0.8482142686843872
vt 1 0.8571428656578064
vt 0.75 0.8482142686843872
vt 1 0.8571428656578064
vt 0.75 0.8571428656578064
vt 0.75 0.8482142686843872
vt 1 0.8482142686843872
vt 1 0.8571428656578064
vt 0.75 0.8482142686843872
vt 1 0.8571428656578064
vt 0.75 0.8571428656578064
vt 0.75 0.8482142686843872
vt 1 0.8482142686843872
vt 1 0.8571428656578064
vt 0.75 0.8482142686843872
vt 1 0.8571428656578064
vt 0.75 0.8571428656578064
vt 0.75 0.8482142686843872
vt 1 0.8482142686843872
vt 1 0.8571428656578064
vt 0.5 0.8660714030265808
vt 0.75 0.875
vt 0.5 0.875
vt 0.5 0.8660714030265808
vt 0.75 0.8660714030265808
vt 0.75 0.875
vn 1 0 0
vn 1 0 0
vn 1 0 0
vn 1 0 0
vn 1 0 0
vn 1 0 0
vn 1 0 0
vn 1 0 0
vn 1 0 0
vn 1 0 0
vn 1 0 0
vn 1 0 0
vn 0 0.4472135954999579 0.8944271909999159
vn 0 0.4472135954999579 0.8944271909999159
vn 0 0.4472135954999579 0.8944271909999159
vn 0 0.4472135954999579 0.8944271909999159
vn 0 0.4472135954999579 0.8944271909999159
vn 0 0.4472135954999579 0.8944271909999159
vn 0 0.44721359549995787 0.8944271909999159
vn 0 0.44721359549995787 0.8944271909999159
vn 0 0.44721359549995787 0.8944271909999159
vn -4.965068306494546e-17 0.4472135954999579 0.8944271909999159
vn -4.965068306494546e-17 0.4472135954999579 0.8944271909999159
vn -4.965068306494546e-17 0.4472135954999579 0.8944271909999159
vn 0 1 0
vn 0 1 0
vn 0 1 0
vn 1.1102230246251565e-16 1 1.1102230246251565e-16
vn 1.1102230246251565e-16 1 1.1102230246251565e-16
vn 1.1102230246251565e-16 1 1.1102230246251565e-16
g tile_indoors_wall_1
usemtl 1
f 1/1/1 2/2/2 3/3/3
f 1/4/4 4/5/5 2/6/6
f 5/7/7 4/8/8 1/9/9
f 5/10/10 6/11/11 4/12/12
f 4/13/13 7/14/14 2/15/15
f 4/16/16 8/17/17 7/18/18
f 6/19/19 8/20/20 4/21/21
f 6/22/22 9/23/23 8/24/24
f 5/25/25 9/26/26 6/27/27
f 5/28/28 10/29/29 9/30/30
