mtllib material.mtl
o Default
v 0 -1 0.5
v 0 5.551115123125783e-17 -1
v 0 5.551115123125783e-17 0
v 0 -1 -0.5
v 0 1 -0.5
v 1 2 -1
v 0 2 -1
v 1 1 -0.5
v 0 1 -1.5
v 1 0 -2
v 1 1 -1.5
v 1 1 -2.5
v 1 0 -1
v 0 1 -2.5
v 0 0 -2
v 0 0 1
v 1 0 0
v 1 0 1
v 1 0.5 -1
v 0 0.5 -1
v 1 2 0
v 1 1 0.5
v 1 -1 -0.5
v 1 -1 0.5
vt 0.75 0.8482142686843872
vt 1 0.8571428656578064
vt 0.75 0.8571428656578064
vt 0.75 0.8482142686843872
vt 1 0.8482142686843872
vt 1 0.8571428656578064
vt 0.75 0.8482142686843872
vt 1 0.8571428656578064
vt 0.75 0.8571428656578064
vt 0.75 0.8482142686843872
vt 1 0.8482142686843872
vt 1 0.8571428656578064
vt 0.75 0.8482142686843872
vt 1 0.8571428656578064
vt 0.75 0.8571428656578064
vt 0.75 0.8482142686843872
vt 1 0.8482142686843872
vt 1 0.8571428656578064
vt 0.75 0.8482142686843872
vt 1 0.8571428656578064
vt 0.75 0.8571428656578064
vt 0.75 0.8482142686843872
vt 1 0.8482142686843872
vt 1 0.8571428656578064
vt 0.75 0.8482142686843872
vt 1 0.8571428656578064
vt 0.75 0.8571428656578064
vt 0.75 0.8482142686843872
vt 1 0.8482142686843872
vt 1 0.8571428656578064
vt 0.5 0.8660714030265808
vt 0.75 0.875
vt 0.5 0.875
vt 0.5 0.8660714030265808
vt 0.75 0.8660714030265808
vt 0.75 0.875
vt 0 0.8839285969734192
vt 0.25 0.8928571343421936
vt 0 0.8928571343421936
vt 0 0.8839285969734192
vt 0.25 0.8839285969734192
vt 0.25 0.8928571343421936
vt 0.75 0.8482142686843872
vt 1 0.8571428656578064
vt 0.75 0.8571428656578064
vt 0.75 0.8482142686843872
vt 1 0.8482142686843872
vt 1 0.8571428656578064
vt 0.75 0.8482142686843872
vt 1 0.8571428656578064
vt 0.75 0.8571428656578064
vt 0.75 0.8482142686843872
vt 1 0.8482142686843872
vt 1 0.8571428656578064
vt 0.75 0.8482142686843872
vt 1 0.8571428656578064
vt 0.75 0.8571428656578064
vt 0.75 0.8482142686843872
vt 1 0.8482142686843872
vt 1 0.8571428656578064
vt 0.75 0.8482142686843872
vt 1 0.8571428656578064
vt 0.75 0.8571428656578064
vt 0.75 0.8482142686843872
vt 1 0.8482142686843872
vt 1 0.8571428656578064
vn 1 0 0
vn 1 0 0
vn 1 0 0
vn 1 0 0
vn 1 0 0
vn 1 0 0
vn 0 0.4472135954999579 0.8944271909999159
vn 0 0.4472135954999579 0.8944271909999159
vn 0 0.4472135954999579 0.8944271909999159
vn 0 0.4472135954999579 0.8944271909999159
vn 0 0.4472135954999579 0.8944271909999159
vn 0 0.4472135954999579 0.8944271909999159
vn 1 0 0
vn 1 0 0
vn 1 0 0
vn 1 0 0
vn 1 0 0
vn 1 0 0
vn -1 0 0
vn -1 0 0
vn -1 0 0
vn -1 0 0
vn -1 0 0
vn -1 0 0
vn 1 0 0
vn 1 0 0
vn 1 0 0
vn 1 0 0
vn 1 0 0
vn 1 0 0
vn 5.551115123125783e-17 1 5.551115123125783e-17
vn 5.551115123125783e-17 1 5.551115123125783e-17
vn 5.551115123125783e-17 1 5.551115123125783e-17
vn 0 1 0
vn 0 1 0
vn 0 1 0
vn 0 0.8944271909999159 0.44721359549995787
vn 0 0.8944271909999159 0.44721359549995787
vn 0 0.8944271909999159 0.44721359549995787
vn 4.965068306494546e-17 0.8944271909999159 0.4472135954999579
vn 4.965068306494546e-17 0.8944271909999159 0.4472135954999579
vn 4.965068306494546e-17 0.8944271909999159 0.4472135954999579
vn -1 0 0
vn -1 0 0
vn -1 0 0
vn -1 0 0
vn -1 0 0
vn -1 0 0
vn -1 0 0
vn -1 0 0
vn -1 0 0
vn -1 0 0
vn -1 0 0
vn -1 0 0
vn -1 0 0
vn -1 0 0
vn -1 0 0
vn -1 0 0
vn -1 0 0
vn -1 0 0
vn -1 0 0
vn -1 0 0
vn -1 0 0
vn -1 0 0
vn -1 0 0
vn -1 0 0
g tile_indoors_wall_5
usemtl 1
f 1/1/1 2/2/2 3/3/3
f 1/4/4 4/5/5 2/6/6
f 5/7/7 6/8/8 7/9/9
f 5/10/10 8/11/11 6/12/12
f 3/13/13 9/14/14 5/15/15
f 3/16/16 2/17/17 9/18/18
f 10/19/19 11/20/20 12/21/21
f 10/22/22 13/23/23 11/24/24
f 2/25/25 14/26/26 9/27/27
f 2/28/28 15/29/29 14/30/30
f 16/31/31 17/32/32 3/33/33
f 16/34/34 18/35/35 17/36/36
f 3/37/37 19/38/38 20/39/39
f 3/40/40 17/41/41 19/42/42
f 8/43/43 21/44/44 6/45/45
f 8/46/46 22/47/47 21/48/48
f 17/49/49 22/50/50 8/51/51
f 17/52/52 18/53/53 22/54/54
f 23/55/55 17/56/56 13/57/57
f 23/58/58 24/59/59 17/60/60
f 13/61/61 8/62/62 11/63/63
f 13/64/64 17/65/65 8/66/66
