mtllib material.mtl
o Default
v 0 -1.1102230246251565e-16 1
v 1 0 0
v 0 1.1102230246251565e-16 0
v 1 -1.1102230246251565e-16 1
v 0 1 -0.5
v 1 2 -1
v 0 2 -1
v 1 1 -0.5
vt 0.5 0.8660714030265808
vt 0.75 0.875
vt 0.5 0.875
vt 0.5 0.8660714030265808
vt 0.75 0.8660714030265808
vt 0.75 0.875
vt 0.75 0.8482142686843872
vt 1 0.8571428656578064
vt 0.75 0.8571428656578064
vt 0.75 0.8482142686843872
vt 1 0.8482142686843872
vt 1 0.8571428656578064
vt 0.75 0.8482142686843872
vt 1 0.8571428656578064
vt 0.75 0.8571428656578064
vt 0.75 0.8482142686843872
vt 1 0.8482142686843872
vt 1 0.8571428656578064
vn 1.1102230246251565e-16 1 2.220446049250313e-16
vn 1.1102230246251565e-16 1 2.220446049250313e-16
vn 1.1102230246251565e-16 1 2.220446049250313e-16
vn 0 1 1.1102230246251565e-16
vn 0 1 1.1102230246251565e-16
vn 0 1 1.1102230246251565e-16
vn 0 0.4472135954999579 0.8944271909999159
vn 0 0.4472135954999579 0.8944271909999159
vn 0 0.4472135954999579 0.8944271909999159
vn 0 0.4472135954999579 0.8944271909999159
vn 0 0.4472135954999579 0.8944271909999159
vn 0 0.4472135954999579 0.8944271909999159
vn 0 0.447213595499958 0.8944271909999159
vn 0 0.447213595499958 0.8944271909999159
vn 0 0.447213595499958 0.8944271909999159
vn 4.965068306494546e-17 0.4472135954999579 0.8944271909999159
vn 4.965068306494546e-17 0.4472135954999579 0.8944271909999159
vn 4.965068306494546e-17 0.4472135954999579 0.8944271909999159
g tile_indoors_wall_2
usemtl 1
f 1/1/1 2/2/2 3/3/3
f 1/4/4 4/5/5 2/6/6
f 5/7/7 6/8/8 7/9/9
f 5/10/10 8/11/11 6/12/12
f 3/13/13 8/14/14 5/15/15
f 3/16/16 2/17/17 8/18/18
