mtllib material.mtl
o Default
v 0 -1.1102230246251565e-16 1
v 1 1.1102230246251565e-16 0
v 0 1.1102230246251565e-16 0
v 1 -1.1102230246251565e-16 1
v 1 -0.5 1
v 0 0.5 0
v -1.1102230246251565e-16 0.5 1
v 1 -0.5 0
v 0 -0.5 1
v 1 0.5 0
v 0 0.5 0
v 1 -0.5 1
vt 0.25 0.6428571343421936
vt 0 0.7142857313156128
vt 0 0.6428571343421936
vt 0.25 0.6428571343421936
vt 0.25 0.7142857313156128
vt 0 0.7142857313156128
vt 0.5 0.7142857313156128
vt 0.25 0.7857142686843872
vt 0.25 0.7142857313156128
vt 0.5 0.7142857313156128
vt 0.5 0.7857142686843872
vt 0.25 0.7857142686843872
vt 0.5 0.7857142686843872
vt 0.75 0.8571428656578064
vt 0.5 0.8571428656578064
vt 0.5 0.7857142686843872
vt 0.75 0.7857142686843872
vt 0.75 0.8571428656578064
vn 0 1 2.220446049250313e-16
vn 0 1 2.220446049250313e-16
vn 0 1 2.220446049250313e-16
vn 0 1 2.220446049250313e-16
vn 0 1 2.220446049250313e-16
vn 0 1 2.220446049250313e-16
vn 0.7071067811865475 0.7071067811865475 7.850462293418875e-17
vn 0.7071067811865475 0.7071067811865475 7.850462293418875e-17
vn 0.7071067811865475 0.7071067811865475 7.850462293418875e-17
vn 0.7071067811865475 0.7071067811865475 0
vn 0.7071067811865475 0.7071067811865475 0
vn 0.7071067811865475 0.7071067811865475 0
vn 0 0.7071067811865475 0.7071067811865475
vn 0 0.7071067811865475 0.7071067811865475
vn 0 0.7071067811865475 0.7071067811865475
vn 0 0.7071067811865475 0.7071067811865475
vn 0 0.7071067811865475 0.7071067811865475
vn 0 0.7071067811865475 0.7071067811865475
g tile_water_edge_topleft
usemtl material1
f 1/1/1 2/2/2 3/3/3
f 1/4/4 4/5/5 2/6/6
f 5/7/7 6/8/8 7/9/9
f 5/10/10 8/11/11 6/12/12
f 9/13/13 10/14/14 11/15/15
f 9/16/16 12/17/17 10/18/18
