mtllib material.mtl
o Default
v 0 2 0
v 1 2 -1
v 0 2 -1
v 1 2 0
v 1 1 0.5
v 1 1 -0.5
v 1 0 1
v 1 0 0
vt 0.75 0.4285714328289032
vt 1 0.5
vt 0.75 0.5
vt 0.75 0.4285714328289032
vt 1 0.4285714328289032
vt 1 0.5
vt 0 0.4285714328289032
vt 0.25 0.5
vt 0 0.5
vt 0 0.4285714328289032
vt 0.25 0.4285714328289032
vt 0.25 0.5
vt 0.25 0.5
vt 0.5 0.5714285969734192
vt 0.25 0.5714285969734192
vt 0.25 0.5
vt 0.5 0.5
vt 0.5 0.5714285969734192
vn 0 1 0
vn 0 1 0
vn 0 1 0
vn 0 1 0
vn 0 1 0
vn 0 1 0
vn 1 0 0
vn 1 0 0
vn 1 0 0
vn 1 0 0
vn 1 0 0
vn 1 0 0
vn 1 0 0
vn 1 0 0
vn 1 0 0
vn 1 0 0
vn 1 0 0
vn 1 0 0
g tile_lab_9
usemtl 1
f 1/1/1 2/2/2 3/3/3
f 1/4/4 4/5/5 2/6/6
f 5/7/7 2/8/8 4/9/9
f 5/10/10 6/11/11 2/12/12
f 7/13/13 6/14/14 5/15/15
f 7/16/16 8/17/17 6/18/18
