mtllib material.mtl
o Default
v 0 -1.1102230246251565e-16 1
v 1 1.1102230246251565e-16 -5.551115123125783e-17
v 0 1.1102230246251565e-16 -5.551115123125783e-17
v 1 -1.1102230246251565e-16 1
v 1 -0.5 1
v 0 -0.5 0
v 0 0.5 1
vt 0.25 0.75
vt 0.5 0.7589285969734192
vt 0.25 0.7589285969734192
vt 0.25 0.75
vt 0.5 0.75
vt 0.5 0.7589285969734192
vt 0.5 0.9732142686843872
vt 0.75 0.9732142686843872
vt 0.5 0.9821428656578064
vn 0 1 2.220446049250313e-16
vn 0 1 2.220446049250313e-16
vn 0 1 2.220446049250313e-16
vn 0 1 2.220446049250313e-16
vn 0 1 2.220446049250313e-16
vn 0 1 2.220446049250313e-16
vn 0.5773502691896258 0.5773502691896258 -0.5773502691896258
vn 0.5773502691896258 0.5773502691896258 -0.5773502691896258
vn 0.5773502691896258 0.5773502691896258 -0.5773502691896258
g tile_water_12
usemtl 1
f 1/1/1 2/2/2 3/3/3
f 1/4/4 4/5/5 2/6/6
f 5/7/7 6/8/8 7/9/9
