mtllib material.mtl
o Default
v 0 -1.1102230246251565e-16 1
v 1 1.1102230246251565e-16 0
v 0 1.1102230246251565e-16 0
v 1 -1.1102230246251565e-16 1
v 0 -0.5 0.5
v 1 0.5 -5.551115123125783e-17
v 0 0.5 0
v 1 -0.5 0.5
v 0.5 -0.5 0
v 1 0.5 1
v 0.5 -0.5 1
vt 0.25 0.7410714030265808
vt 0.5 0.75
vt 0.25 0.75
vt 0.25 0.7410714030265808
vt 0.5 0.7410714030265808
vt 0.5 0.75
vt 0.5 0.9732142686843872
vt 0.75 0.9821428656578064
vt 0.5 0.9821428656578064
vt 0.5 0.9732142686843872
vt 0.75 0.9732142686843872
vt 0.75 0.9821428656578064
vt 0.75 0.9642857313156128
vt 1 0.9732142686843872
vt 0.75 0.9732142686843872
vt 0.75 0.9642857313156128
vt 1 0.9642857313156128
vt 1 0.9732142686843872
vn 0 1 2.220446049250313e-16
vn 0 1 2.220446049250313e-16
vn 0 1 2.220446049250313e-16
vn 0 1 2.220446049250313e-16
vn 0 1 2.220446049250313e-16
vn 0 1 2.220446049250313e-16
vn 4.965068306494546e-17 0.44721359549995787 0.8944271909999159
vn 4.965068306494546e-17 0.44721359549995787 0.8944271909999159
vn 4.965068306494546e-17 0.44721359549995787 0.8944271909999159
vn 0 0.4472135954999579 0.8944271909999159
vn 0 0.4472135954999579 0.8944271909999159
vn 0 0.4472135954999579 0.8944271909999159
vn -0.8944271909999159 0.4472135954999579 0
vn -0.8944271909999159 0.4472135954999579 0
vn -0.8944271909999159 0.4472135954999579 0
vn -0.8944271909999159 0.4472135954999579 0
vn -0.8944271909999159 0.4472135954999579 0
vn -0.8944271909999159 0.4472135954999579 0
g tile_water_3
usemtl 1
f 1/1/1 2/2/2 3/3/3
f 1/4/4 4/5/5 2/6/6
f 5/7/7 6/8/8 7/9/9
f 5/10/10 8/11/11 6/12/12
f 9/13/13 10/14/14 6/15/15
f 9/16/16 11/17/17 10/18/18
