mtllib material.mtl
o Default
v -2.220446049250313e-16 2 0
v 1 2 -1
v -2.220446049250313e-16 2 -1
v 1 2 0
v -2.220446049250313e-16 1 -0.5
v 0 1 0.5
v -2.220446049250313e-16 0 0
v 0 0 1
vt 0.75 0.4285714328289032
vt 1 0.5
vt 0.75 0.5
vt 0.75 0.4285714328289032
vt 1 0.4285714328289032
vt 1 0.5
vt 0.5 0.5
vt 0.75 0.5714285969734192
vt 0.5 0.5714285969734192
vt 0.5 0.5
vt 0.75 0.5
vt 0.75 0.5714285969734192
vt 0.25 0.5
vt 0.5 0.5714285969734192
vt 0.25 0.5714285969734192
vt 0.25 0.5
vt 0.5 0.5
vt 0.5 0.5714285969734192
vn 0 1 0
vn 0 1 0
vn 0 1 0
vn 0 1 0
vn 0 1 0
vn 0 1 0
vn -1 0 0
vn -1 0 0
vn -1 0 0
vn -1 -1.1102230246251565e-16 2.220446049250313e-16
vn -1 -1.1102230246251565e-16 2.220446049250313e-16
vn -1 -1.1102230246251565e-16 2.220446049250313e-16
vn -1 1.1102230246251565e-16 2.220446049250313e-16
vn -1 1.1102230246251565e-16 2.220446049250313e-16
vn -1 1.1102230246251565e-16 2.220446049250313e-16
vn -1 1.1102230246251565e-16 2.220446049250313e-16
vn -1 1.1102230246251565e-16 2.220446049250313e-16
vn -1 1.1102230246251565e-16 2.220446049250313e-16
g tile_lab_6
usemtl 1
f 1/1/1 2/2/2 3/3/3
f 1/4/4 4/5/5 2/6/6
f 5/7/7 1/8/8 3/9/9
f 5/10/10 6/11/11 1/12/12
f 7/13/13 6/14/14 5/15/15
f 7/16/16 8/17/17 6/18/18
