mtllib material.mtl
o Default
v 1 1 -0.5
v 0 2 -1
v 1 2 -1
v 0 1 -0.5
v 1 0 0
v 0 0 0
v 0 2 0
v 1 2 0
v 1 1 0.5
v 1 0 1
vt 0 0.4285714328289032
vt 0.25 0.5
vt 0 0.5
vt 0 0.4285714328289032
vt 0.25 0.4285714328289032
vt 0.25 0.5
vt 0.25 0.5
vt 0.5 0.5714285969734192
vt 0.25 0.5714285969734192
vt 0.25 0.5
vt 0.5 0.5
vt 0.5 0.5714285969734192
vt 0.75 0.5714285969734192
vt 1 0.6428571343421936
vt 0.75 0.6428571343421936
vt 0.75 0.5714285969734192
vt 1 0.5714285969734192
vt 1 0.6428571343421936
vt 0 0.4285714328289032
vt 0.25 0.5
vt 0 0.5
vt 0 0.4285714328289032
vt 0.25 0.4285714328289032
vt 0.25 0.5
vt 0.25 0.5
vt 0.5 0.5714285969734192
vt 0.25 0.5714285969734192
vt 0.25 0.5
vt 0.5 0.5
vt 0.5 0.5714285969734192
vn 0 -0.4472135954999579 -0.8944271909999159
vn 0 -0.4472135954999579 -0.8944271909999159
vn 0 -0.4472135954999579 -0.8944271909999159
vn 0 -0.4472135954999579 -0.8944271909999159
vn 0 -0.4472135954999579 -0.8944271909999159
vn 0 -0.4472135954999579 -0.8944271909999159
vn 0 -0.4472135954999579 -0.8944271909999159
vn 0 -0.4472135954999579 -0.8944271909999159
vn 0 -0.4472135954999579 -0.8944271909999159
vn 0 -0.4472135954999579 -0.8944271909999159
vn 0 -0.4472135954999579 -0.8944271909999159
vn 0 -0.4472135954999579 -0.8944271909999159
vn 0 1 0
vn 0 1 0
vn 0 1 0
vn 0 1 0
vn 0 1 0
vn 0 1 0
vn 1 0 0
vn 1 0 0
vn 1 0 0
vn 1 0 0
vn 1 0 0
vn 1 0 0
vn 1 0 0
vn 1 0 0
vn 1 0 0
vn 1 0 0
vn 1 0 0
vn 1 0 0
g tile_lab_10
usemtl 1
f 1/1/1 2/2/2 3/3/3
f 1/4/4 4/5/5 2/6/6
f 5/7/7 4/8/8 1/9/9
f 5/10/10 6/11/11 4/12/12
f 7/13/13 3/14/14 2/15/15
f 7/16/16 8/17/17 3/18/18
f 9/19/19 3/20/20 8/21/21
f 9/22/22 1/23/23 3/24/24
f 10/25/25 1/26/26 9/27/27
f 10/28/28 5/29/29 1/30/30
