mtllib material.mtl
o Default
v 0 -1.1102230246251565e-16 1
v 1 0 0
v 0 0 0
v 1 -1.1102230246251565e-16 1
v 0 1.5 -0.5
v 1 2 -1
v 0 2 -1
v 1 1.5 -0.5
v 0 1 -0.5
v 1 1 -0.5
v 0 1 0
v 1 1 0
v 0 0 0.5
v 1 0 0.5
vt 0.5 0.8660714030265808
vt 0.75 0.875
vt 0.5 0.875
vt 0.5 0.8660714030265808
vt 0.75 0.8660714030265808
vt 0.75 0.875
vt 0.75 0.875
vt 1 0.8839285969734192
vt 0.75 0.8839285969734192
vt 0.75 0.875
vt 1 0.875
vt 1 0.8839285969734192
vt 0.75 0.8482142686843872
vt 1 0.8571428656578064
vt 0.75 0.8571428656578064
vt 0.75 0.8482142686843872
vt 1 0.8482142686843872
vt 1 0.8571428656578064
vt 0.75 0.8482142686843872
vt 1 0.8571428656578064
vt 0.75 0.8571428656578064
vt 0.75 0.8482142686843872
vt 1 0.8482142686843872
vt 1 0.8571428656578064
vt 0.25 0.870535671710968
vt 0.5 0.875
vt 0.25 0.875
vt 0.25 0.870535671710968
vt 0.5 0.870535671710968
vt 0.5 0.875
vt 0.25 0.8660714030265808
vt 0.5 0.8705357313156128
vt 0.25 0.8705357313156128
vt 0.25 0.8660714030265808
vt 0.5 0.8660714030265808
vt 0.5 0.8705357313156128
vn 0 1 1.1102230246251565e-16
vn 0 1 1.1102230246251565e-16
vn 0 1 1.1102230246251565e-16
vn 0 1 1.1102230246251565e-16
vn 0 1 1.1102230246251565e-16
vn 0 1 1.1102230246251565e-16
vn 0 0.7071067811865475 0.7071067811865475
vn 0 0.7071067811865475 0.7071067811865475
vn 0 0.7071067811865475 0.7071067811865475
vn 0 0.7071067811865475 0.7071067811865475
vn 0 0.7071067811865475 0.7071067811865475
vn 0 0.7071067811865475 0.7071067811865475
vn 0 0.4472135954999579 0.8944271909999159
vn 0 0.4472135954999579 0.8944271909999159
vn 0 0.4472135954999579 0.8944271909999159
vn 0 0.4472135954999579 0.8944271909999159
vn 0 0.4472135954999579 0.8944271909999159
vn 0 0.4472135954999579 0.8944271909999159
vn 0 0.4472135954999579 0.8944271909999159
vn 0 0.4472135954999579 0.8944271909999159
vn 0 0.4472135954999579 0.8944271909999159
vn 0 0.4472135954999579 0.8944271909999159
vn 0 0.4472135954999579 0.8944271909999159
vn 0 0.4472135954999579 0.8944271909999159
vn 0 1 0
vn 0 1 0
vn 0 1 0
vn 0 1 0
vn 0 1 0
vn 0 1 0
vn 0 0.4472135954999579 0.8944271909999159
vn 0 0.4472135954999579 0.8944271909999159
vn 0 0.4472135954999579 0.8944271909999159
vn 0 0.4472135954999579 0.8944271909999159
vn 0 0.4472135954999579 0.8944271909999159
vn 0 0.4472135954999579 0.8944271909999159
g tile_indoors_wall_7
usemtl 1
f 1/1/1 2/2/2 3/3/3
f 1/4/4 4/5/5 2/6/6
f 5/7/7 6/8/8 7/9/9
f 5/10/10 8/11/11 6/12/12
f 9/13/13 6/14/14 7/15/15
f 9/16/16 10/17/17 6/18/18
f 3/19/19 10/20/20 9/21/21
f 3/22/22 2/23/23 10/24/24
f 11/25/25 10/26/26 9/27/27
f 11/28/28 12/29/29 10/30/30
f 13/31/31 12/32/32 11/33/33
f 13/34/34 14/35/35 12/36/36
