mtllib tree_2.mtl
o Default
v 0 -0.00020046647114213556 0.9998499751091003
v 1 -0.00010046647366834804 -0.0001500075013609603
v 0 -0.00010046647366834804 -0.0001500075013609603
v 1 -0.00020046647114213556 0.9998499751091003
v 0 0 0.5
v 1 2 0.5
v 0 2 0.5
v 1 0 0.5
v 0.5 0 1
v 0.5 2 0
v 0.5 2 1
v 0.5 0 0
vt 0.5 0.9910714030265808
vt 0.75 1
vt 0.5 1
vt 0.5 0.9910714030265808
vt 0.75 0.9910714030265808
vt 0.75 1
vt 0 0.9642857313156128
vt 0.25 0.9821428656578064
vt 0 0.9821428656578064
vt 0 0.9642857313156128
vt 0.25 0.9642857313156128
vt 0.25 0.9821428656578064
vt 0 0.9642857313156128
vt 0.25 0.9821428656578064
vt 0 0.9821428656578064
vt 0 0.9642857313156128
vt 0.25 0.9642857313156128
vt 0.25 0.9821428656578064
vn 0 0.999999995 0.00009999999871274138
vn 0 0.999999995 0.00009999999871274138
vn 0 0.999999995 0.00009999999871274138
vn 0 0.999999995 0.00009999999871274138
vn 0 0.999999995 0.00009999999871274138
vn 0 0.999999995 0.00009999999871274138
vn 0 0 1
vn 0 0 1
vn 0 0 1
vn 0 0 1
vn 0 0 1
vn 0 0 1
vn 1 0 0
vn 1 0 0
vn 1 0 0
vn 1 0 0
vn 1 0 0
vn 1 0 0
g tree_2
usemtl 1
f 1/1/1 2/2/2 3/3/3
f 1/4/4 4/5/5 2/6/6
f 5/7/7 6/8/8 7/9/9
f 5/10/10 8/11/11 6/12/12
f 9/13/13 10/14/14 11/15/15
f 9/16/16 12/17/17 10/18/18
