mtllib tree_3.mtl
o Default
v -0.5 -0.0001004934310913086 0.49985000491142273
v 0 1.9998995065689087 -0.0001500075013609603
v -0.5 1.9998995065689087 0.49985000491142273
v 0 -0.00020045042037963867 -0.0001500075013609603
v 0.5 1.9998995065689087 0.49985000491142273
v 0.5 -0.00020045042037963867 0.49985000491142273
v -0.5 -0.0001004934310913086 -0.5001500248908997
v -0.5 1.9998995065689087 -0.5001500248908997
v 0.5 1.9998995065689087 -0.5001500248908997
v 0.5 -0.0001004636287689209 -0.5001500248908997
vt 0 0.9642857313156128
vt 0.125 0.9821428656578064
vt 0 0.9821428656578064
vt 0 0.9642857313156128
vt 0.125 0.9642857313156128
vt 0.125 0.9821428656578064
vt 0.125 0.9642857313156128
vt 0.25 0.9821428656578064
vt 0.125 0.9821428656578064
vt 0.125 0.9642857313156128
vt 0.25 0.9642857313156128
vt 0.25 0.9821428656578064
vt 0 0.9642857313156128
vt 0.125 0.9821428656578064
vt 0 0.9821428656578064
vt 0 0.9642857313156128
vt 0.125 0.9642857313156128
vt 0.125 0.9821428656578064
vt 0.125 0.9642857313156128
vt 0.25 0.9821428656578064
vt 0.125 0.9821428656578064
vt 0.125 0.9642857313156128
vt 0.25 0.9642857313156128
vt 0.25 0.9821428656578064
vt 0.5 0.9910714030265808
vt 0.75 1
vt 0.5 1
vt 0.5 0.9910714030265808
vt 0.75 0.9910714030265808
vt 0.75 1
vn 0.7071067899637108 0 0.707106772409384
vn 0.7071067899637108 0 0.707106772409384
vn 0.7071067899637108 0 0.707106772409384
vn 0.7071067899637108 0 0.707106772409384
vn 0.7071067899637108 0 0.707106772409384
vn 0.7071067899637108 0 0.707106772409384
vn -0.7071067899637108 0 0.707106772409384
vn -0.7071067899637108 0 0.707106772409384
vn -0.7071067899637108 0 0.707106772409384
vn -0.7071067899637108 0 0.707106772409384
vn -0.7071067899637108 0 0.707106772409384
vn -0.7071067899637108 0 0.707106772409384
vn -0.7071067934828079 0 0.7071067688902869
vn -0.7071067934828079 0 0.7071067688902869
vn -0.7071067934828079 0 0.7071067688902869
vn -0.7071067934828078 0 0.7071067688902868
vn -0.7071067934828078 0 0.7071067688902868
vn -0.7071067934828078 0 0.7071067688902868
vn 0.7071067934828078 0 0.7071067688902868
vn 0.7071067934828078 0 0.7071067688902868
vn 0.7071067934828078 0 0.7071067688902868
vn 0.7071067934828079 0 0.7071067688902869
vn 0.7071067934828079 0 0.7071067688902869
vn 0.7071067934828079 0 0.7071067688902869
vn -2.98023223876953e-8 0.9999999999999996 0
vn -2.98023223876953e-8 0.9999999999999996 0
vn -2.98023223876953e-8 0.9999999999999996 0
vn 0.00009997303905133768 0.9999999900024118 0.0001000028383931106
vn 0.00009997303905133768 0.9999999900024118 0.0001000028383931106
vn 0.00009997303905133768 0.9999999900024118 0.0001000028383931106
g tree_3
usemtl 1
f 1/1/1 2/2/2 3/3/3
f 1/4/4 4/5/5 2/6/6
f 4/7/7 5/8/8 2/9/9
f 4/10/10 6/11/11 5/12/12
f 7/13/13 2/14/14 8/15/15
f 7/16/16 4/17/17 2/18/18
f 4/19/19 9/20/20 2/21/21
f 4/22/22 10/23/23 9/24/24
f 1/25/25 10/26/26 7/27/27
f 1/28/28 6/29/29 10/30/30
